<svg xmlns="http://www.w3.org/2000/svg" viewBox="0 0 320 180" role="img" aria-label="Map, compass rose, and spyglass">
  <defs>
    <filter id="map-rough">
      <feTurbulence type="fractalNoise" baseFrequency="0.019" numOctaves="2" seed="37"/>
      <feDisplacementMap in="SourceGraphic" scale="1.6"/>
    </filter>
  </defs>
  <g filter="url(#map-rough)" fill="none" stroke="#4a2b12" stroke-linecap="round" stroke-linejoin="round">
    <ellipse cx="162" cy="145" rx="112" ry="13" fill="#4a2b12" opacity=".14" stroke="none"/>
    <path d="M41 59c36-9 73-7 111 6 40 14 80 14 120 0l-18 75c-37 12-75 11-113-2-36-12-73-14-110-5Z" fill="#dfbb73" opacity=".72" stroke-width="5"/>
    <path d="M67 66c14 20 22 41 22 63M151 65c-10 22-15 46-14 72M224 70c-12 19-19 40-20 64" opacity=".35" stroke-width="3"/>
    <path d="M70 109c21-26 43-29 67-9 19 17 39 14 59-8 15-16 34-18 58-5" opacity=".45" stroke-width="3"/>
    <path d="M93 126c16-21 36-28 58-21" opacity=".45" stroke-width="2"/>
    <path d="M105 101l23-22 17 24 16-16 24 32" fill="#7a4f22" opacity=".48" stroke-width="3"/>
    <path d="M221 93l22 22M243 93l-22 22" stroke="#7d2e20" stroke-width="5"/>
    <circle cx="253" cy="42" r="34" fill="#d9ad5c" opacity=".64" stroke-width="4"/>
    <path d="M253 10l8 25 25 7-25 8-8 25-8-25-25-8 25-7Z" fill="#f2d08a" opacity=".78" stroke-width="3"/>
    <path d="M253 22v40M233 42h40" opacity=".5" stroke-width="2"/>
    <path d="M197 137l64-20 10 18-63 22Z" fill="#8c5b25" opacity=".82" stroke-width="5"/>
    <path d="M259 115l30-9 11 18-31 10Z" fill="#c18a3d" opacity=".84" stroke-width="5"/>
    <path d="M190 145l19-6" stroke-width="8"/>
    <path d="M44 58c16-3 33-5 49-4M37 132c17-4 34-5 51-3" opacity=".32" stroke-width="2"/>
  </g>
</svg>
